<svg id="LOGO_LYCEE_SAINTE_MARIE_QUADRI" xmlns="http://www.w3.org/2000/svg" xmlns:xlink="http://www.w3.org/1999/xlink" width="313.796" height="161.605" viewBox="0 0 313.796 161.605">
  <defs>
    <linearGradient id="linear-gradient" y1="0.5" x2="1" y2="0.5" gradientUnits="objectBoundingBox">
      <stop offset="0" stop-color="#00add9"/>
      <stop offset="1" stop-color="#00346c"/>
    </linearGradient>
    <linearGradient id="linear-gradient-2" x1="-0.001" y1="0.5" x2="1" y2="0.5" xlink:href="#linear-gradient"/>
  </defs>
  <path id="Tracé_141" data-name="Tracé 141" d="M80.113,42.615c-5.506,6.9-36.963,84.656-37.593,154.3a.248.248,0,0,0,.49.067L80.536,42.85A.246.246,0,0,0,80.113,42.615Z" transform="translate(-42.52 -42.523)" fill="#ee6e3c"/>
  <path id="Tracé_142" data-name="Tracé 142" d="M50.96,244.982c10.993,15.218,7.049-14.467,4.668-52.992Z" transform="translate(-45.299 -91.742)" fill="#00add9"/>
  <path id="Tracé_143" data-name="Tracé 143" d="M57.316,152.327l8.773-80.733C54.7,69.529,55.13,130.194,57.316,152.327Z" transform="translate(-46.987 -52.079)" fill="#00add9"/>
  <path id="Tracé_144" data-name="Tracé 144" d="M57.581,182.455C53.859,147.4,48.306,94.9,47.42,85.827a.248.248,0,0,0-.49-.034c-6.546,29.223,2.6,69.458,10.289,96.8,1.583,14.923,3.729,35.1,3.729,35.1C69.507,221.671,64.356,206.044,57.581,182.455Z" transform="translate(-43.235 -56.707)" fill="#00346c"/>
  <g id="Groupe_30" data-name="Groupe 30" transform="translate(35.252 120.577)">
    <g id="Groupe_29" data-name="Groupe 29">
      <path id="Tracé_145" data-name="Tracé 145" d="M100.949,233.953h-3.81l-.812,2.321H95.08l3.4-9.5h1.113l3.4,9.5h-1.221Zm-1.6-4.561c-.094-.275-.248-.718-.3-.966-.067.241-.208.691-.3.966l-1.248,3.514h3.085Z" transform="translate(-95.08 -223.772)" fill="#00add9"/>
      <path id="Tracé_146" data-name="Tracé 146" d="M113.67,231.446c0-2.388,1.127-4.916,3.977-4.916a3.184,3.184,0,0,1,3.1,1.71l-1.066.543a2.229,2.229,0,0,0-2.032-1.154c-2.059,0-2.743,2.079-2.743,3.816,0,1.885.825,3.8,2.743,3.8a2.258,2.258,0,0,0,2.086-1.207l1.1.409a3.285,3.285,0,0,1-3.179,1.918C114.743,236.363,113.67,233.861,113.67,231.446Z" transform="translate(-101.202 -223.693)" fill="#00add9"/>
      <path id="Tracé_147" data-name="Tracé 147" d="M131.94,231.446c0-2.388,1.127-4.916,3.977-4.916a3.184,3.184,0,0,1,3.1,1.71l-1.066.543a2.229,2.229,0,0,0-2.032-1.154c-2.059,0-2.743,2.079-2.743,3.816,0,1.885.825,3.8,2.743,3.8A2.258,2.258,0,0,0,138,234.042l1.1.409a3.285,3.285,0,0,1-3.179,1.918C133.006,236.363,131.94,233.861,131.94,231.446Z" transform="translate(-107.218 -223.693)" fill="#00add9"/>
      <path id="Tracé_148" data-name="Tracé 148" d="M150.2,231.446c0-2.347,1.053-4.916,4.071-4.916s4.085,2.569,4.085,4.916-1.06,4.916-4.085,4.916S150.2,233.794,150.2,231.446Zm6.915,0c0-1.858-.724-3.816-2.837-3.816s-2.837,2.093-2.837,3.816c0,1.858.738,3.8,2.837,3.8S157.115,233.157,157.115,231.446Z" transform="translate(-113.231 -223.693)" fill="#00add9"/>
      <path id="Tracé_149" data-name="Tracé 149" d="M178.123,236.284v-5.842c0-.329.013-.8.027-1.046-.107.315-.288.745-.423,1.073l-2.636,5.976-2.549-6c-.121-.3-.3-.718-.409-1.033.027.248.04.7.04,1.033v5.842H170.98v-9.5h1.127l2.783,6.4.248.637c.067-.2.168-.436.248-.637l2.8-6.4h1.14v9.5h-1.2Z" transform="translate(-120.074 -223.775)" fill="#00add9"/>
      <path id="Tracé_150" data-name="Tracé 150" d="M192.64,226.77h3.675c2.334,0,3.1,1.442,3.1,2.85a2.809,2.809,0,0,1-3.1,2.837h-2.482v3.816H192.64Zm5.58,2.85a1.654,1.654,0,0,0-1.824-1.751h-2.562v3.488H196.4A1.651,1.651,0,0,0,198.22,229.62Z" transform="translate(-127.206 -223.772)" fill="#00add9"/>
      <path id="Tracé_151" data-name="Tracé 151" d="M213.559,233.953h-3.81l-.812,2.321H207.69l3.4-9.5H212.2l3.4,9.5h-1.221Zm-1.6-4.561c-.094-.275-.248-.718-.3-.966-.067.241-.208.691-.3.966l-1.248,3.514h3.085Z" transform="translate(-132.162 -223.772)" fill="#00add9"/>
      <path id="Tracé_152" data-name="Tracé 152" d="M226.28,231.446c0-2.461,1.261-4.916,4.071-4.916a3.284,3.284,0,0,1,3.112,1.67l-1.066.61a2.322,2.322,0,0,0-2.046-1.167c-2.14,0-2.837,2.066-2.837,3.8,0,1.958.838,3.79,2.837,3.79a2.058,2.058,0,0,0,2.153-2.187v-.382H230.76V231.58h2.991v1.14a3.3,3.3,0,0,1-3.4,3.642C227.447,236.363,226.28,233.935,226.28,231.446Z" transform="translate(-138.284 -223.693)" fill="#00add9"/>
      <path id="Tracé_153" data-name="Tracé 153" d="M252.079,236.284l-4.319-6.788c-.121-.2-.262-.436-.382-.664.013.2.027.449.027.664v6.788H246.21v-9.5h1.207l4.252,6.761c.134.228.262.449.4.7-.013-.241-.027-.476-.027-.691V226.78h1.194v9.5Z" transform="translate(-144.846 -223.775)" fill="#00add9"/>
      <path id="Tracé_154" data-name="Tracé 154" d="M265.92,226.77h5.708v1.113h-4.514V230.8h2.978v1.113h-2.978v3.233h4.816v1.127h-6.01Z" transform="translate(-151.337 -223.772)" fill="#00add9"/>
      <path id="Tracé_155" data-name="Tracé 155" d="M283.41,226.77h3.783c2.3,0,3.032,1.355,3.032,2.7a2.612,2.612,0,0,1-2.233,2.649l2.059,4.158h-1.341l-1.972-4.071h-2.126v4.071h-1.194V226.77Zm3.81,4.333a1.563,1.563,0,0,0,1.8-1.6,1.582,1.582,0,0,0-1.8-1.63H284.6V231.1Z" transform="translate(-157.096 -223.772)" fill="#00add9"/>
      <path id="Tracé_156" data-name="Tracé 156" d="M312.22,226.77H315.9c2.334,0,3.1,1.442,3.1,2.85a2.809,2.809,0,0,1-3.1,2.837h-2.482v3.816H312.22Zm5.587,2.85a1.654,1.654,0,0,0-1.824-1.751h-2.569v3.488h2.562A1.657,1.657,0,0,0,317.807,229.62Z" transform="translate(-166.583 -223.772)" fill="#00add9"/>
      <path id="Tracé_157" data-name="Tracé 157" d="M329.53,231.446c0-2.347,1.053-4.916,4.071-4.916s4.085,2.569,4.085,4.916-1.06,4.916-4.085,4.916S329.53,233.794,329.53,231.446Zm6.908,0c0-1.858-.724-3.816-2.837-3.816s-2.837,2.093-2.837,3.816c0,1.858.738,3.8,2.837,3.8S336.438,233.157,336.438,231.446Z" transform="translate(-172.283 -223.693)" fill="#00add9"/>
      <path id="Tracé_158" data-name="Tracé 158" d="M350.2,232.706V226.77h1.194v5.936c0,2.093,1.013,2.622,2.247,2.622s2.26-.53,2.26-2.622V226.77h1.194v5.936c0,2.73-1.4,3.736-3.454,3.736C351.629,236.442,350.2,235.449,350.2,232.706Z" transform="translate(-179.09 -223.772)" fill="#00add9"/>
      <path id="Tracé_159" data-name="Tracé 159" d="M369.63,226.77h3.783c2.3,0,3.032,1.355,3.032,2.7a2.612,2.612,0,0,1-2.233,2.649l2.059,4.158h-1.341l-1.972-4.071h-2.126v4.071h-1.194V226.77Zm3.816,4.333a1.563,1.563,0,0,0,1.8-1.6,1.582,1.582,0,0,0-1.8-1.63h-2.622V231.1Z" transform="translate(-185.488 -223.772)" fill="#00add9"/>
      <path id="Tracé_160" data-name="Tracé 160" d="M398.45,226.77h3.783c2.3,0,3.032,1.355,3.032,2.7a2.612,2.612,0,0,1-2.233,2.649l2.059,4.158h-1.341l-1.972-4.071h-2.126v4.071h-1.194V226.77Zm3.816,4.333a1.563,1.563,0,0,0,1.8-1.6,1.582,1.582,0,0,0-1.8-1.63h-2.622V231.1Z" transform="translate(-194.978 -223.772)" fill="#00add9"/>
      <path id="Tracé_161" data-name="Tracé 161" d="M417.33,225.3h5.708v1.113h-4.514v2.918H421.5v1.113h-2.978v3.233h4.816V234.8h-6.01Zm3.307-3h1.7l-2.441,2.119h-1.207Z" transform="translate(-201.195 -222.3)" fill="#00add9"/>
      <path id="Tracé_162" data-name="Tracé 162" d="M434.71,232.706V226.77H435.9v5.936c0,2.093,1.013,2.622,2.247,2.622s2.26-.53,2.26-2.622V226.77h1.2v5.936c0,2.73-1.4,3.736-3.454,3.736C436.139,236.442,434.71,235.449,434.71,232.706Z" transform="translate(-206.918 -223.772)" fill="#00add9"/>
      <path id="Tracé_163" data-name="Tracé 163" d="M453.32,234.243l1.127-.409a2.391,2.391,0,0,0,2.247,1.415c1.154,0,1.891-.557,1.891-1.6,0-1.1-1.04-1.6-2.166-2.012-1.341-.49-2.81-1.1-2.81-2.757,0-1.274,1.087-2.347,2.951-2.347a2.68,2.68,0,0,1,2.81,1.7l-1.1.369a1.851,1.851,0,0,0-1.8-.966c-1.013,0-1.63.476-1.63,1.248,0,.885.986,1.274,2.072,1.67,1.341.5,2.9,1.194,2.9,3.072,0,1.751-1.341,2.743-3.152,2.743A3.39,3.39,0,0,1,453.32,234.243Z" transform="translate(-213.047 -223.693)" fill="#00add9"/>
      <path id="Tracé_164" data-name="Tracé 164" d="M470.81,234.243l1.127-.409a2.391,2.391,0,0,0,2.247,1.415c1.154,0,1.891-.557,1.891-1.6,0-1.1-1.04-1.6-2.166-2.012-1.341-.49-2.81-1.1-2.81-2.757,0-1.274,1.087-2.347,2.951-2.347a2.68,2.68,0,0,1,2.81,1.7l-1.1.369a1.851,1.851,0,0,0-1.8-.966c-1.013,0-1.63.476-1.63,1.248,0,.885.986,1.274,2.073,1.67,1.341.5,2.9,1.194,2.9,3.072,0,1.751-1.341,2.743-3.152,2.743A3.39,3.39,0,0,1,470.81,234.243Z" transform="translate(-218.806 -223.693)" fill="#00add9"/>
      <path id="Tracé_165" data-name="Tracé 165" d="M489.16,226.77h1.194v9.5H489.16Z" transform="translate(-224.849 -223.772)" fill="#00add9"/>
      <path id="Tracé_166" data-name="Tracé 166" d="M500.22,226.77H504c2.3,0,3.032,1.355,3.032,2.7a2.612,2.612,0,0,1-2.233,2.649l2.059,4.158h-1.341l-1.972-4.071h-2.133v4.071H500.22Zm3.816,4.333a1.563,1.563,0,0,0,1.8-1.6,1.582,1.582,0,0,0-1.8-1.63h-2.622V231.1Z" transform="translate(-228.491 -223.772)" fill="#00add9"/>
    </g>
  </g>
  <g id="Groupe_31" data-name="Groupe 31" transform="translate(99.861 85.56)">
    <path id="Tracé_167" data-name="Tracé 167" d="M359.1,198.608h-3.548V181.09q0-1.67.081-3.139-.4,1.137-1.261,3.219L346.55,199.1l-7.579-18.008q-.976-2.364-1.221-3.1a30.205,30.205,0,0,1,.121,3.1v17.519H334.33V170.09h3.34l8.27,19.189.731,1.912c.107-.322.355-.966.731-1.912l8.31-19.189h3.38v28.518Z" transform="translate(-238.473 -170.09)" fill="url(#linear-gradient)"/>
    <path id="Tracé_168" data-name="Tracé 168" d="M212.262,198.608h-3.421l-12.831-20.369c-.49-.785-.872-1.449-1.14-2,.054.812.081,1.482.081,2v20.369H191.41V170.09H195l12.629,20.289c.436.7.825,1.415,1.18,2.119-.054-.979-.08-1.67-.08-2.079V170.09h3.541v28.518Z" transform="translate(-191.41 -170.09)" fill="url(#linear-gradient-2)"/>
  </g>
  <g id="Groupe_32" data-name="Groupe 32" transform="translate(34.461 85.07)">
    <path id="Tracé_169" data-name="Tracé 169" d="M103.84,198.858a11.1,11.1,0,0,1-6.291-1.771,8.958,8.958,0,0,1-3.649-4.581l3.34-1.221a7.134,7.134,0,0,0,6.68,4.239,6.311,6.311,0,0,0,4.118-1.241,4.805,4.805,0,0,0-.181-7.156,16.714,16.714,0,0,0-4.749-2.441c-.979-.349-1.784-.664-2.421-.939a17.081,17.081,0,0,1-2.2-1.16,9.066,9.066,0,0,1-1.979-1.549,6.718,6.718,0,0,1-1.241-2,6.612,6.612,0,0,1-.51-2.629,6.351,6.351,0,0,1,2.361-5.01,9.489,9.489,0,0,1,6.4-2.039,10.015,10.015,0,0,1,5.5,1.408,6.386,6.386,0,0,1,2.851,3.689l-3.26,1.1a4.62,4.62,0,0,0-1.958-2.079,6.571,6.571,0,0,0-3.38-.812,5.682,5.682,0,0,0-3.541,1,3.262,3.262,0,0,0-1.3,2.75,3.217,3.217,0,0,0,.469,1.71,4.193,4.193,0,0,0,1.469,1.382,14.827,14.827,0,0,0,1.851.979c.57.241,1.355.557,2.361.939a28.473,28.473,0,0,1,3.1,1.328,20.3,20.3,0,0,1,2.649,1.69,6.822,6.822,0,0,1,2.16,2.629,8.316,8.316,0,0,1,.731,3.568,7.474,7.474,0,0,1-2.609,6.03A10.2,10.2,0,0,1,103.84,198.858Z" transform="translate(-93.9 -169.36)" fill="#00346c"/>
    <path id="Tracé_170" data-name="Tracé 170" d="M149.02,198.608l-2.441-6.969H135.25l-2.4,6.969H129.14l10.1-28.518h3.3l10.1,28.518Zm-3.548-10.1-3.669-10.55c-.463-1.328-.758-2.294-.9-2.891-.3,1.06-.6,2.025-.9,2.891l-3.709,10.55Z" transform="translate(-105.504 -169.6)" fill="#00346c"/>
    <path id="Tracé_171" data-name="Tracé 171" d="M173.11,198.608V170.09h3.548v28.518Z" transform="translate(-119.983 -169.6)" fill="#00346c"/>
    <path id="Tracé_172" data-name="Tracé 172" d="M244.129,173.47v25.138h-3.541V173.47H232.64v-3.38h19.437v3.38Z" transform="translate(-139.586 -169.6)" fill="#00346c"/>
    <path id="Tracé_173" data-name="Tracé 173" d="M271.76,198.608V170.09h16.949v3.34H275.3v9.249h8.84v3.34H275.3v9.209h14.3v3.38Z" transform="translate(-152.468 -169.6)" fill="#00346c"/>
    <path id="Tracé_174" data-name="Tracé 174" d="M308.11,192.2v-3.34h9.537v3.34Z" transform="translate(-164.438 -175.781)" fill="#00346c"/>
  </g>
  <g id="Groupe_33" data-name="Groupe 33" transform="translate(226.349 85.56)">
    <path id="Tracé_175" data-name="Tracé 175" d="M399.886,198.608l-2.448-6.969H386.11l-2.4,6.969H380l10.108-28.518h3.3l10.108,28.518Zm-3.548-10.1-3.669-10.55c-.463-1.328-.758-2.294-.9-2.891-.3,1.06-.6,2.025-.9,2.891l-3.709,10.55Z" transform="translate(-380 -170.09)" fill="#00346c"/>
    <path id="Tracé_176" data-name="Tracé 176" d="M423.86,198.608V170.09H435.1q4.729,0,6.868,2.321a8.709,8.709,0,0,1,.49,10.818,7.9,7.9,0,0,1-4.99,2.911l6.11,12.468h-3.991l-5.869-12.22H427.4v12.22Zm3.548-15.52h7.78a5.271,5.271,0,0,0,4.051-1.388,4.866,4.866,0,0,0,1.281-3.421,4.71,4.71,0,0,0-5.339-4.889H427.4v9.7Z" transform="translate(-394.443 -170.09)" fill="#00346c"/>
    <path id="Tracé_177" data-name="Tracé 177" d="M465.35,198.608V170.09H468.9v28.518Z" transform="translate(-408.105 -170.09)" fill="#00346c"/>
    <path id="Tracé_178" data-name="Tracé 178" d="M483.63,198.608V170.09h16.949v3.34H487.171v9.249h8.84v3.34h-8.84v9.209h14.3v3.38Z" transform="translate(-414.125 -170.09)" fill="#00346c"/>
  </g>
</svg>
